<?xml version="1.0" encoding="UTF-8" standalone="no"?>
<svg
   xmlns:dc="http://purl.org/dc/elements/1.1/"
   xmlns:cc="http://creativecommons.org/ns#"
   xmlns:rdf="http://www.w3.org/1999/02/22-rdf-syntax-ns#"
   xmlns:svg="http://www.w3.org/2000/svg"
   xmlns="http://www.w3.org/2000/svg"
   xmlns:sodipodi="http://sodipodi.sourceforge.net/DTD/sodipodi-0.dtd"
   xmlns:inkscape="http://www.inkscape.org/namespaces/inkscape"
   inkscape:version="1.0 (1.0+r73+1)"
   sodipodi:docname="grifone_silhouette.svg"
   viewBox="0 0 441.33334 516"
   height="516"
   width="441.33334"
   id="svg480"
   version="1.1">
  <metadata
     id="metadata486">
    <rdf:RDF>
      <cc:Work
         rdf:about="">
        <dc:format>image/svg+xml</dc:format>
        <dc:type
           rdf:resource="http://purl.org/dc/dcmitype/StillImage" />
        <dc:title></dc:title>
      </cc:Work>
    </rdf:RDF>
  </metadata>
  <defs
     id="defs484" />
  <sodipodi:namedview
     inkscape:current-layer="g488"
     inkscape:window-maximized="1"
     inkscape:window-y="27"
     inkscape:window-x="67"
     inkscape:cy="258"
     inkscape:cx="220.66667"
     inkscape:zoom="1.375969"
     showgrid="false"
     id="namedview482"
     inkscape:window-height="969"
     inkscape:window-width="1213"
     inkscape:pageshadow="2"
     inkscape:pageopacity="0"
     guidetolerance="10"
     gridtolerance="10"
     objecttolerance="10"
     borderopacity="1"
     bordercolor="#666666"
     pagecolor="#ffffff" />
  <g
     id="g488"
     inkscape:label="Image"
     inkscape:groupmode="layer">
    <path
       id="path492"
       d="m 201.54369,509.51463 c -0.77844,-2.8909 -2.61787,-6.34446 -4.08763,-7.67457 -1.46976,-1.33012 -2.67229,-4.09559 -2.67229,-6.14549 0,-4.73594 -3.30959,-6.74356 -7.91463,-4.80107 -5.13312,2.16523 -6.75204,4.84975 -6.75204,11.19631 0,3.15984 -0.5184,5.74516 -1.152,5.74516 -0.6336,0 -2.7336,-2.28226 -4.66666,-5.07167 -2.97651,-4.29511 -3.51467,-6.49541 -3.51467,-14.36999 0,-9.33381 2.22216,-15.22501 5.74287,-15.22501 2.43142,0 12.9238,-10.08201 12.9238,-12.41835 0,-2.03921 7.60726,-13.86133 13.88728,-21.58165 4.66761,-5.73811 11.44605,-19.09277 11.44605,-22.55064 0,-1.6206 -1.07512,-4.10967 -2.38915,-5.53128 -1.31402,-1.42161 -2.98625,-4.68475 -3.71606,-7.25141 -1.02882,-3.61828 -2.06467,-4.70866 -4.61086,-4.85356 -1.80616,-0.1028 -4.03393,0.42068 -4.9506,1.16325 -0.91666,0.74259 -1.67585,0.82669 -1.68708,0.18689 -0.0319,-1.81606 -2.60288,2.62562 -2.62584,4.53642 -0.0107,0.93481 1.54238,2.29384 3.45244,3.02004 2.95411,1.12314 3.3369,1.86506 2.56272,4.967 -1.27746,5.11854 -5.36413,11.40453 -13.09276,20.13888 -3.6538,4.12926 -9.19846,11.41666 -12.3215,16.19424 -5.0357,7.70356 -6.37498,8.87285 -11.83558,10.33333 -7.51114,2.00893 -19.4524,2.16877 -19.4524,0.26039 0,-0.76255 1.19726,-3.73326 2.66056,-6.60158 1.97815,-3.87749 4.28655,-5.93136 9,-8.00764 6.75794,-2.97686 18.71642,-13.81909 23.22268,-21.05498 l 2.73019,-4.38398 -3.14004,-2.95993 c -1.72703,-1.62796 -5.04569,-5.35516 -7.3748,-8.28268 l -4.23473,-5.32276 -2.68498,2.85807 c -1.47673,1.57193 -2.27109,3.35216 -1.76525,3.95604 0.50584,0.60389 -0.072,0.34272 -1.28396,-0.58039 -1.76108,-1.34127 -2.31536,-1.34332 -2.75972,-0.0107 -0.31467,0.94399 -1.65336,-0.18946 -3.08381,-2.61101 -2.80487,-4.74828 -4.59486,-5.49463 -4.66672,-1.94583 -0.026,1.28334 -0.81742,3.72131 -1.75874,5.41772 -1.6848,3.03628 -1.73881,3.0016 -3.46348,-2.22422 -1.54493,-4.68118 -3.45173,-6.37198 -8.28609,-7.34747 -0.48888,-0.0987 -1.33888,-0.62936 -1.88888,-1.17936 -0.55,-0.55 -1.75385,-1 -2.67522,-1 -1.53072,0 -4.5659,-2.50205 -13.89473,-11.45415 -3.90505,-3.74733 -5.58678,-4.12857 -4.38385,-0.9938 0.57248,1.49186 0.34036,1.9029 -0.70851,1.25466 -0.85796,-0.5298 -1.55992,-0.25476 -1.55992,0.61165 0,1.18716 -0.48361,1.17392 -1.96283,-0.0537 -1.566,-1.29967 -2.37468,-1.21715 -4,0.40816 -1.12044,1.12045 -2.09698,2.83004 -2.17008,3.79908 -0.0731,0.96906 -0.61329,0.26192 -1.20042,-1.57142 -0.78494,-2.45097 -1.1027,-2.68078 -1.20043,-0.86817 -0.29642,5.498 -4.340053,11.22325 -9.602943,13.59648 -2.93039,1.32143 -7.11442,4.54813 -9.29784,7.17048 -7.03186,8.4454 -9.78233,10.76788 -12.75222,10.76788 -3.92522,0 -9.27746,-6.65533 -10.37801,-12.90471 -0.49352,-2.80241 -2.41761,-9.74529 -4.27576,-15.42862 -3.36338,-10.28722 -3.39936,-10.33334 -8.06324,-10.33334 -2.57662,0 -6.42735,-1.02936 -8.55717,-2.28748 -3.85816,-2.27906 -5.40956,-4.88536 -2.16746,-3.64125 0.93771,0.35983 2.88771,-0.22245 4.33333,-1.29397 2.12492,-1.57503 2.34163,-2.41912 1.13128,-4.40652 -0.82341,-1.35207 -1.91958,-4.38174 -2.43591,-6.73259 -0.51633,-2.35085 -1.49263,-4.61656 -2.16954,-5.03492 -0.67691,-0.41836 -1.23075,-2.10524 -1.23075,-3.74863 0,-1.64338 -0.57979,-3.56776 -1.28841,-4.27638 -0.70863,-0.70863 -1.42513,-3.37863 -1.59223,-5.93334 -0.41917,-6.4086 -3.5232,-11.18957 -5.95465,-9.17164 -1.00726,0.83595 -1.83138,2.38186 -1.83138,3.43534 0,1.05349 -0.56312,1.5674 -1.25139,1.14202 -0.68826,-0.42536 -1.73826,0.0815 -2.33333,1.12638 -0.59507,1.04488 -2.58195,2.10749 -4.41528,2.36137 -2.66589,0.36919 -3.46682,1.39115 -4,5.10387 l -0.66667,4.64225 -2.49761,-5.55751 c -2.7078195,-6.02521 -2.1907195,-14.12284 1.02325,-16.02408 2.7746,-1.64133 4.8077,-6.46909 4.8077,-11.4163 0,-7.27752 2.40502,-12.3154 7.05319,-14.77456 2.35408,-1.24544 5.92273,-3.29412 7.93034,-4.5526 3.01742,-1.89148 4.11221,-1.99962 6.31524,-0.6238 1.46578,0.91538 4.72411,1.66434 7.24075,1.66434 6.69141,0 8.67546,1.13572 10.77899,6.1702 1.04202,2.49388 3.35083,5.07042 5.1599,5.75823 4.61218,1.75355 7.74522,12.54385 5.92711,20.41319 -0.71901,3.11212 -0.89258,8.95838 -0.3857,12.99172 0.50688,4.03333 0.83649,9.70285 0.73247,12.59892 -0.18824,5.24092 2.06586,12.73441 3.83061,12.73441 0.50933,0 2.23684,-2.33221 3.8389,-5.18271 2.57407,-4.57994 2.97444,-7.64261 3.44244,-26.33333 0.29127,-11.63284 0.99415,-22.35063 1.56195,-23.81729 0.56779,-1.46667 3.38294,-6.16291 6.25588,-10.4361 4.89653,-7.28305 5.86503,-11.06102 2.01682,-7.86729 -1.30357,1.08187 -1.70301,0.58312 -1.71661,-2.14333 -0.0132,-2.64248 2.2055,-5.68932 8.65572,-11.88662 4.770393,-4.58333 8.147443,-8.33333 7.504573,-8.33333 -0.64288,0 0.56205,-1.30064 2.67761,-2.89032 13.94261,-10.47675 15.79826,-15.52051 11.18917,-30.41276 -1.58802,-5.131 -3.9888,-10.68684 -5.33507,-12.34633 l -2.44776,-3.01726 -3.1992,3 c -3.11784,2.92371 -6.425934,3.82362 -8.057623,2.19192 -1.01341,-1.0134 5.050283,-7.19192 7.058253,-7.19192 0.83066,0 1.297,-1.61218 1.0606,-3.66666 -0.29045,-2.52434 -1.14437,-3.60972 -2.74088,-3.48387 -1.27544,0.10053 -1.96895,-0.38357 -1.54114,-1.07579 0.42781,-0.69221 0.40993,-2.72446 -0.0397,-4.51613 -1.007991,-4.01617 -4.766783,-4.35337 -4.766783,-0.42763 0,2.36432 -0.32907,2.55684 -2,1.17008 -1.63525,-1.35713 -2,-1.27296 -2,0.46156 0,1.42346 -0.72367,1.84372 -2.19957,1.27736 -1.83771,-0.7052 -2.04592,-0.23185 -1.2656,2.87716 0.75359,3.00255 0.5426,3.57103 -1.09252,2.94358 -2.48526,-0.95368 -8.05967,1.82396 -8.24231,4.10701 -0.48834,6.10423 -0.28773,5.95905 -4.71043,3.40872 -3.98214,-2.29631 -7.8229,-8.68252 -7.8229,-13.00752 0,-1.10977 3.75,-6.00007 8.33333,-10.86732 9.46345,-10.04968 12.97853,-14.92047 12.99121,-18.00171 0.008,-2.06762 -7.7483,-12.97817 -19.67296,-27.67152 -3.18679,-3.92665 -7.36359,-9.62665 -9.28183,-12.66666 -5.80175,-9.1946 -17.64348,-20.66423 -31.48444,-30.49511 C 9.9293875,104.26709 5.8829975,100.51902 4.0615675,95.000027 c -1.38563,-4.19851 -1.24041,-5.03299 1.35705,-7.79785 2.62266,-2.79169 12.7611295,-6.55373 14.6180195,-5.42424 0.41092,0.24996 9.3521,0.825 19.86929,1.27789 10.51718,0.45288 23.11718,1.40719 28,2.12069 9.71076,1.41898 18.24959,3.6952 14.54451,3.87718 -4.12227,0.20247 -2.489,2.45529 2.4521,3.38225 6.70581,1.25801 11.10486,3.46357 10.43463,5.23163 -0.32086,0.84641 3.649113,3.183813 9.105513,5.361043 19.6273,7.83174 35.47909,15.76395 34.83856,17.43315 -0.52824,1.37657 10.43628,7.3732 13.48152,7.3732 0.44988,0 4.23865,2.3104 8.41949,5.13422 4.18084,2.82383 11.90516,7.89778 17.16516,11.27546 5.26,3.37766 11.26,8.28142 13.33333,10.89724 2.07334,2.6158 6.1697,6.37672 9.10303,8.35758 4.93665,3.3337 17.92548,12.93627 23.87775,17.6527 9.22106,7.30654 25.90228,23.70533 28.19276,27.71542 7.01712,12.28532 8.97261,5.39579 8.2405,-29.03262 -0.52132,-24.51563 -1.01208,-29.25762 -4.76066,-46 C 250.30576,106.9104 246.98884,96.006077 240.11098,80.501637 233.8499,66.38759 226.67366,44.506082 225.91013,37.200964 224.47,23.422502 228.44276,16.933438 241.45044,11.817623 c 9.548,-3.7551537 30.87722,-8.3054287 32.29334,-6.8893087 0.60666,0.606647 -0.11118,2.20181 -1.59517,3.544807 -4.73875,4.2885067 -3.4284,6.0285107 4.53992,6.0285107 4.29616,0 7.9692,0.731104 9.03684,1.798747 0.98932,0.989309 4.18217,2.561791 7.09524,3.494403 7.2473,2.320201 8.5429,3.7918 5.38829,6.120226 -2.52201,1.861486 -2.51098,1.968558 0.53711,5.213082 1.83365,1.951842 3.06817,4.853706 3.00532,7.064364 -0.10907,3.835501 3.57164,6.912422 15.411,12.882994 2.63945,1.331072 4.2282,3.052034 4,4.33289 -0.22655,1.271594 2.83381,4.642004 7.62145,8.393618 4.4,3.447854 8.00776,7.220452 8.01724,8.383552 0.009,1.163099 3.86804,6.322049 8.57458,11.464339 10.08862,11.02268 12.16882,14.46906 11.18128,18.524753 -0.5521,2.26739 1.05729,5.21685 6.54782,12 23.45147,28.97258 31.67908,41.68003 31.67908,48.92798 0,1.00956 5.35366,13.13735 11.897,26.95064 12.7833,26.98608 15.06614,32.80619 22.14095,56.44841 5.3498,17.87763 5.43921,18.66667 2.1154,18.66667 -3.05552,0 -4.97324,-2.84925 -11.20124,-16.6422 -4.77647,-10.57828 -8.59909,-15.25603 -6.35752,-7.77968 0.61925,2.06536 2.75336,9.15521 4.74247,15.75521 3.27601,10.87004 8.2828,29.19304 15.48424,56.66667 3.50601,13.37549 5.02397,35.27637 2.38534,34.41537 -1.03032,-0.33618 -3.33374,-3.23589 -5.11872,-6.44376 -1.78497,-3.20788 -3.44716,-5.22721 -3.69376,-4.48741 -0.2466,0.73979 1.37471,7.26763 3.60292,14.50631 9.22222,29.95984 11.02568,49.18886 5.80791,61.92566 -1.63041,3.97988 -2.12819,4.33074 -3.78351,2.66667 -1.04834,-1.05389 -3.92936,-8.96349 -6.40226,-17.57687 -7.52327,-26.20448 -8.108,-21.81022 -1.37423,10.32736 2.39012,11.4071 3.52809,21.74114 3.96428,36 0.6162,20.14334 -0.11427,24.42259 -3.91936,22.96242 -2.04392,-0.78432 -7.6666,-14.41586 -10.29641,-24.96242 -1.76311,-7.07074 -17.41739,-56.4128 -18.15435,-57.22222 -1.67095,-1.83524 -1.36656,2.04064 0.98863,12.58876 6.22929,27.89898 9.06736,50.6751 6.81578,54.69842 -1.24562,2.22583 -1.61601,2.04479 -4.06912,-1.98901 -1.4843,-2.44075 -4.00438,-9.72181 -5.60018,-16.18015 -2.7511,-11.1339 -6.47328,-19.32677 -6.61604,-14.56246 -0.0601,2.0085 -13.61607,9.31785 -17.35822,9.35956 -1.1,0.012 -4.64029,1.81138 -7.8673,3.99804 -3.22703,2.18665 -6.94162,3.97573 -8.25464,3.97573 -3.95266,0 -4.11772,2.2846 -0.37762,5.22657 l 3.52586,2.77343 h -3.2801 c -3.91898,0 -18.58178,-10.94417 -20.23004,-15.09952 -4.10553,-10.35024 -5.33447,-12.75813 -6.22923,-12.20513 -1.3899,0.85901 -2.62026,-2.76112 -2.62026,-7.70974 0,-4.76861 -2.7006,-12.98561 -4.26786,-12.98561 -0.58601,0 -1.08896,2.25 -1.11766,5 l -0.0521,5 -1.94781,-4.48641 c -1.07139,-2.46754 -1.94791,-7.74732 -1.94791,-11.73288 0,-7.56211 -1.61694,-11.74943 -8.32082,-21.54806 -5.63383,-8.23458 -10.63627,-10.8883 -20.53653,-10.89433 -9.48436,-0.005 -9.83163,0.41281 -9.76496,11.77073 0.0436,7.42115 2.9437,13.55762 6.40745,13.55762 2.86677,0 5.54823,4.39489 5.54928,9.09524 0.001,6.18968 3.5868,23.55756 5.96063,28.87344 4.32211,9.67877 11.37162,33.84818 11.37162,38.98785 0,4.44423 -0.83583,6.47324 -4,9.71013 -2.2,2.25058 -4,3.47126 -4,2.71264 0,-1.95313 -3.64112,-1.71802 -4.4503,0.28736 -0.52908,1.31122 -0.69496,1.30418 -0.77778,-0.0329 -0.0579,-0.93481 -1.67937,-2.29815 -3.60329,-3.02961 -2.81772,-1.0713 -3.84671,-0.8704 -5.29092,1.033 -1.66501,2.19438 -1.79593,2.19985 -1.83532,0.0765 -0.056,-3.01676 -5.37573,-6.07839 -5.37573,-3.09381 0,1.1258 -0.679,2.0469 -1.5089,2.0469 -3.2972,0 -0.16969,-10.62798 4.72028,-16.0406 3.9374,-4.35822 4.78862,-6.32326 4.78862,-11.05457 0,-6.89423 -2.69655,-16.41776 -7.98784,-28.21107 -3.71486,-8.27977 -4.12068,-8.69384 -8.52076,-8.69384 -5.04562,0 -12.08154,-4.89125 -13.50999,-9.39189 -0.45528,-1.43445 -1.63461,-2.60811 -2.62073,-2.60811 -1.8054,0 -3.41759,6.3952 -3.6471,14.46727 -0.0896,3.15215 -0.73381,4.1994 -2.58316,4.1994 -1.45714,0 -2.46418,0.95332 -2.46481,2.33333 -0.001,3.55704 -7.25387,18.0047 -10.47773,20.87332 -1.57,1.39699 -2.85455,3.34699 -2.85455,4.33334 0,0.98633 -0.48148,1.79334 -1.06995,1.79334 -1.48573,0 -5.61134,11.906 -5.60332,16.17051 0.012,6.56021 3.61179,12.86423 7.8805,13.8018 3.07082,0.67447 4.46424,2.15801 6.36236,6.77399 1.33673,3.2507 2.88041,5.91262 3.43041,5.91537 1.59396,0.008 1.04263,8.29348 -0.84321,12.67167 l -1.72294,4 -0.96529,-6.33334 c -0.72505,-4.7571 -1.54227,-6.33333 -3.28359,-6.33333 -1.27506,0 -3.02618,-0.70788 -3.89136,-1.57305 -1.20853,-1.20854 -2.33146,-1.16719 -4.84573,0.17841 -1.79996,0.96331 -4.58123,1.40928 -6.18057,0.99104 -4.09566,-1.07104 -7.93398,1.74151 -7.93398,5.81364 0,2.81908 -6.37026,17.40467 -8.55621,19.59061 -0.33103,0.33103 -1.23876,-1.76342 -2.0172,-4.65432 z m 159.9022,-80.5831 c 3.35224,-1.75983 8.67357,-6.54404 12.327,-11.08272 3.53567,-4.39239 7.69179,-8.45348 9.23583,-9.02466 2.47881,-0.91697 2.71674,-1.77677 2.03322,-7.34717 -0.42574,-3.46977 -3.16502,-13.50868 -6.08728,-22.30868 -4.71426,-14.1964 -10.55305,-33.76147 -19.19893,-64.33333 -2.81969,-9.97043 -4.13779,-11.66715 -5.37835,-6.92328 -0.62453,2.38821 -1.06578,2.52582 -3.40828,1.06292 -1.47998,-0.92427 -3.71825,-3.95879 -4.97393,-6.7434 -1.25568,-2.7846 -2.64193,-5.06372 -3.08055,-5.06472 -0.43862,-0.001 -0.59084,3.31861 -0.33825,7.37692 0.6308,10.13461 -0.0995,11.70209 -4.51429,9.69054 -1.91306,-0.87165 -4.45215,-3.418 -5.64243,-5.65857 l -2.16414,-4.07375 -0.8617,5.01472 c -1.0855,6.31714 -1.76583,6.97234 -4.4513,4.28687 -1.98942,-1.98941 -2.15873,-1.85845 -2.15873,1.66984 0,2.10572 -0.63729,4.46587 -1.4162,5.24477 -0.99939,0.99939 0.37431,4.36543 4.66732,11.4366 6.73146,11.08764 8.84511,17.97298 6.04796,19.7017 -1.41909,0.87705 -1.33448,1.72622 0.44226,4.43785 2.81972,4.30344 4.35969,13.57581 2.45065,14.75567 -0.80812,0.49944 -5.31854,-4.08244 -10.38478,-10.54932 -5.10236,-6.51299 -9.67778,-11.15535 -10.6332,-10.78872 -0.92236,0.35394 -6.78445,-4.72351 -13.02686,-11.28323 -12.233,-12.85476 -13.521,-13.41983 -23.66307,-10.38119 -3.76038,1.12664 -6.02204,1.15218 -8.34408,0.0941 -2.70406,-1.23206 -3.64153,-0.96591 -6.20345,1.76112 -2.171,2.31093 -3.89528,2.99233 -6.14395,2.42796 -1.87078,-0.46951 -3.12594,-0.19112 -3.12594,0.69334 0,2.74562 -0.223,3.47335 -1.55688,5.08056 -2.02158,2.43586 0.0144,7.06399 3.10757,7.06399 1.48737,0 4.59695,-1.31344 6.91015,-2.91875 l 4.20582,-2.9187 -2.53998,2.91874 c -2.50963,2.88387 -2.50615,2.91875 0.29149,2.91875 1.96196,0 2.59711,0.61072 2.06831,1.98876 -0.87474,2.27952 3.30473,4.45725 4.64808,2.42191 1.74741,-2.64754 6.90484,-2.76978 11.78952,-0.27943 2.7352,1.39448 6.82876,2.53543 9.0968,2.53543 9.64877,0 23.71287,14.52678 29.33735,30.30249 1.24796,3.50029 2.59814,7.26417 3.0004,8.36417 0.40227,1.1 0.60447,2.54502 0.44934,3.21115 -0.15514,0.66613 0.21617,1.56613 0.82512,2 1.67722,1.195 5.44381,10.63476 7.231,18.12219 1.46791,6.14982 3.94064,10.80076 9.11496,17.14428 2.63963,3.23608 11.72124,2.30701 20.0164,-2.04772 z"
       style="fill:#000000;stroke-width:1.33333" />
  </g>
</svg>
