<?xml version="1.0" encoding="UTF-8" standalone="no"?>
<svg
   xmlns:dc="http://purl.org/dc/elements/1.1/"
   xmlns:cc="http://creativecommons.org/ns#"
   xmlns:rdf="http://www.w3.org/1999/02/22-rdf-syntax-ns#"
   xmlns:svg="http://www.w3.org/2000/svg"
   xmlns="http://www.w3.org/2000/svg"
   xmlns:sodipodi="http://sodipodi.sourceforge.net/DTD/sodipodi-0.dtd"
   xmlns:inkscape="http://www.inkscape.org/namespaces/inkscape"
   inkscape:version="1.0 (1.0+r73+1)"
   sodipodi:docname="grifone.svg"
   viewBox="0 0 3622.6667 312.66504"
   height="312.66504"
   width="3622.6667"
   id="svg194"
   version="1.1">
  <title
     id="title226">Logo Grifone</title>
  <metadata
     id="metadata200">
    <rdf:RDF>
      <cc:Work
         rdf:about="">
        <dc:format>image/svg+xml</dc:format>
        <dc:type
           rdf:resource="http://purl.org/dc/dcmitype/StillImage" />
        <dc:title>Logo Grifone</dc:title>
        <dc:creator>
          <cc:Agent>
            <dc:title>Giulio Vaccari</dc:title>
          </cc:Agent>
        </dc:creator>
      </cc:Work>
    </rdf:RDF>
  </metadata>
  <defs
     id="defs198" />
  <sodipodi:namedview
     inkscape:current-layer="g202"
     inkscape:window-maximized="1"
     inkscape:window-y="27"
     inkscape:window-x="67"
     inkscape:cy="390.69799"
     inkscape:cx="1650.7334"
     inkscape:zoom="0.19714603"
     showgrid="false"
     id="namedview196"
     inkscape:window-height="969"
     inkscape:window-width="1213"
     inkscape:pageshadow="2"
     inkscape:pageopacity="0"
     guidetolerance="10"
     gridtolerance="10"
     objecttolerance="10"
     borderopacity="1"
     bordercolor="#666666"
     pagecolor="#ffffff" />
  <g
     transform="translate(-144.59344,-157.51122)"
     id="g202"
     inkscape:label="Image"
     inkscape:groupmode="layer">
    <path
       id="path206"
       d="m 3160.4772,468.60318 c -12.7238,-2.647 -34.9859,-11.7072 -48.5508,-19.7591 -18.3591,-10.8977 -37.3914,-30.0946 -48.313,-48.7309 -6.191,-10.5641 -13.2744,-28.6277 -16.8501,-42.9702 -4.9556,-19.877 -5.0232,-46.5642 -0.1689,-66.75001 6.8734,-28.58243 18.5722,-50.59044 37.4216,-70.39776 18.6806,-19.6302 40.2794,-32.52171 66.5774,-39.73746 11.9167,-3.26973 15.6002,-3.66226 34.6667,-3.69426 21.638,-0.0363 27.2663,0.7527 44.6667,6.2618 30.8352,9.76265 60.4725,33.95182 80.2818,65.52392 2.502,3.98764 9.7155,22.54781 13.473,34.66554 4.1164,13.27554 4.1904,13.9931 4.2176,40.84623 0.023,22.4482 -0.375,28.4057 -2.2246,33.3334 -1.2388,3.3 -2.943,8.7 -3.7874,12 -4.641,18.1374 -20.2296,43.8772 -36.5024,60.2723 -17.4499,17.5809 -40.2668,30.7795 -64.4412,37.2765 -13.3346,3.5836 -47.1768,4.6247 -60.4664,1.86 z m 58.1162,-45.1753 c 14.0826,-4.6191 25.8004,-11.6369 37.1236,-22.2335 24.3656,-22.8022 35.4907,-50.4411 33.7991,-83.97 -1.5185,-30.09915 -12.4436,-53.62157 -34.3052,-73.86165 -32.0488,-29.67148 -80.986,-34.9523 -117.9944,-12.73278 -16.8045,10.08928 -33.9236,29.30126 -42.0197,47.15692 -7.1718,15.81703 -9.6566,29.60431 -8.9043,49.40751 0.7567,19.9212 3.3849,30.1162 11.8457,45.9496 14.123,26.4296 36.5339,44.3289 65.1494,52.034 14.6917,3.956 40.3881,3.1428 55.3058,-1.7501 z m -852.6666,43.6825 c -23.1911,-5.0092 -43.3104,-13.9466 -60.9563,-27.0779 -30.6185,-22.7851 -49.6337,-51.5221 -60.0321,-90.7247 -2.9783,-11.2283 -3.3975,-15.5324 -3.4527,-35.4468 -0.059,-21.22856 0.1999,-23.65573 4.0781,-38.25656 23.8428,-89.76343 117.1726,-139.71916 203.6963,-109.03068 6.6,2.34091 15,5.75492 18.6667,7.58669 21.4497,10.71575 46.062,32.02408 58.313,50.48515 10.1023,15.2232 11.8552,13.88209 -18.1442,13.88209 h -26.1164 l -9.6928,-9.73298 c -11.081,-11.1267 -21.6386,-18.43588 -34.335,-23.77031 -11.7393,-4.93236 -21.1861,-6.58896 -42.2282,-7.40517 -14.8859,-0.57742 -19.2196,-0.25882 -28.6667,2.10741 -56.9039,14.25279 -93.5391,74.75931 -81.2671,134.22006 5.1602,25.0015 19.9206,47.7353 44.0255,67.807 11.8265,9.8477 22.6021,15.586 37.0463,19.7284 14.2925,4.0989 41.5213,4.0987 56.5902,-4e-4 26.1107,-7.1027 51.3076,-26.2906 65.2624,-49.6982 2.8671,-4.8094 5.213,-9.5261 5.213,-10.4818 0,-1.3163 -2.6666,-1.6507 -11,-1.3795 -6.05,0.1969 -34.85,0.2637 -64,0.1484 l -53,-0.2096 v -22 -22 h 94.1917 94.1917 l -0.8696,10.3334 c -0.4781,5.6833 -2.0765,15.4333 -3.5518,21.6666 -14.5676,61.5492 -60.7223,106.6416 -122.1386,119.3275 -12.5662,2.5956 -49.6618,2.5488 -61.8234,-0.078 z m 984,-144.5827 V 175.86101 h 19.7306 19.7307 l 30.5556,47.66666 c 70.0912,109.34211 110.13,171.59131 110.7963,172.25761 0.39,0.39 0.6213,-44.8835 0.5141,-100.60761 -0.1067,-55.72417 -0.1497,-105.36666 -0.095,-110.31666 l 0.1007,-9 h 20.6667 20.6666 v 146.66667 146.6667 l -21.6666,-0.042 c -20.8284,-0.04 -21.7487,-0.1564 -23.787,-3 -1.1661,-1.627 -14.1249,-22.1581 -28.7972,-45.6248 -14.6724,-23.4667 -31.9589,-51.0667 -38.4148,-61.3333 -6.4557,-10.2667 -22.6528,-36.0667 -35.9933,-57.3334 -13.3405,-21.26664 -26.1497,-41.63411 -28.4649,-45.26102 l -4.2092,-6.59434 v 109.59436 109.5944 h -20.6667 -20.6666 v -146.6667 z m -774.6672,-0.3333 -7e-4,-145.66671 72.334,0.66667 72.3339,0.66667 6,3.54401 c 13.6706,8.07483 24.0621,22.17641 32.7598,44.45599 3.4495,8.8362 3.6507,10.57614 3.7752,32.66666 0.1516,26.88739 -1.8401,36.5167 -11.3241,54.74611 -10.7855,20.7309 -26.6253,32.2635 -46.7215,34.0166 -5.7692,0.5032 -10.4894,1.4977 -10.4894,2.2099 0,1.1873 16.0072,26.4942 54.2034,85.6941 8.0438,12.4666 15.9874,24.9166 17.6528,27.6666 l 3.0279,5 h -24.598 -24.598 l -7.0836,-11 c -3.896,-6.05 -13.9659,-21.8 -22.3775,-35 -36.6805,-57.5616 -42.5742,-66 -46.0969,-66 -1.8183,0 -3.6769,-0.6 -4.1301,-1.3333 -0.4532,-0.7333 -4.9887,-1.3333 -10.0787,-1.3333 h -9.2547 v 57.3333 57.3333 h -22.6666 -22.6667 z m 120.5677,-9 c 11.5379,-5.8311 21.9979,-16.05148 26.8188,-26.20463 4.4079,-9.28309 5.7913,-23.32994 3.3144,-33.6546 -3.8429,-16.01941 -19.0307,-31.48037 -37.0319,-37.69817 -8.3665,-2.88985 -11.0722,-3.10931 -38.3352,-3.10931 h -29.3333 l -0.3487,53.08463 -0.3488,53.08458 33.0155,-0.4179 33.0153,-0.418 z m 99.4328,8.6666 V 175.86101 h 24 24 v 145.99997 146 h -24 -24 z m 79.8221,143 c -0.2688,-1.65 -0.3308,-67.35 -0.1377,-146 l 0.3512,-142.99997 h 77.3155 77.3156 v 24 24 h -58 -58 v 36.66666 36.66667 h 53.3333 53.3333 v 24.00004 24 h -53.3333 -53.3333 v 61.3333 61.3333 h -19.1779 c -18.8545,0 -19.1861,-0.051 -19.6667,-3 z m 737.0668,0.7778 c -0.4889,-0.4889 -0.8889,-65.5938 -0.8889,-144.6776 V 177.1725 l 76.3333,0.34425 76.3334,0.34426 0.3621,25.66666 0.3621,25.66667 h -53.3621 -53.3621 v 35.33333 35.33331 h 54.6666 54.6667 v 22 22 h -54.6667 -54.6666 v 38.6667 38.6667 h 53.3333 53.3333 v 20.5576 c 0,11.3067 -0.3641,21.5067 -0.8093,22.6666 -0.7247,1.8886 -8.6463,2.1091 -75.7777,2.1091 -41.2327,0 -75.3686,-0.4 -75.8574,-0.8889 z m -2660.67032,-1.8475 c -23.8218,-4.2679 -42.60415,-14.3213 -60.89987,-32.5969 -15.39781,-15.381 -23.67514,-28.6714 -29.89464,-48 -11.6083,-36.0758 -7.61885,-72.6793 11.49104,-105.43091 8.22108,-14.08977 28.07567,-33.8089 41.78003,-41.49502 40.53294,-22.73296 85.48684,-19.22459 123.29426,9.62236 7.006,5.34562 12.0266,8.29121 13.2993,7.80281 1.7832,-0.68427 2.0446,-6.73303 2.0446,-47.3086 v -46.52401 h 20 20 v 151.33337 151.3333 h -20 -20 v -14 -14 h -3.8367 c -2.1102,0 -4.573,0.8871 -5.4729,1.9714 -2.7255,3.284 -20.0313,14.1993 -28.8577,18.2014 -18.77952,8.515 -45.01392,12.3037 -62.94742,9.0908 z m 45.353,-42.9598 c 11.95742,-4.3468 20.43002,-9.9909 29.99132,-19.9793 9.4078,-9.8278 14.1365,-17.5363 18.8211,-30.681 3.0169,-8.4652 3.4391,-11.7614 3.456,-26.9768 0.018,-16.1627 -0.259,-18.067 -4.1001,-28.195 -6.9074,-18.21307 -20.958,-35.54944 -33.7399,-41.6298 -2.5666,-1.22097 -6.2632,-3.29388 -8.2145,-4.60645 -1.9514,-1.31258 -10.31392,-3.58126 -18.58352,-5.04152 -19.432,-3.43138 -28.9716,-2.22934 -45.202,5.69566 -19.94217,9.73744 -35.35931,28.42799 -42.15901,51.11041 -1.67855,5.5993 -2.39823,12.4013 -2.39823,22.6667 0,10.2654 0.71968,17.0673 2.39823,22.6666 6.90912,23.0474 21.37074,40.432 41.49241,49.8787 6.6,3.0985 15.3,6.4838 19.3333,7.5228 10.5113,2.7077 27.7289,1.6318 38.9049,-2.431 z m 719.34962,41.5717 c -35.4779,-5.188 -69.9079,-31.663 -85.7401,-65.93 -31.0346,-67.17 1.0446,-148.16073 67.5097,-170.44325 61.776,-20.71052 127.6444,17.57388 145.3787,84.49775 3.4724,13.1037 3.1864,13.3333 -16.6102,13.3333 h -16.4469 l -3.6328,-10.2332 c -12.4123,-34.96335 -43.6024,-56.98831 -77.3796,-54.64159 -33.3355,2.31604 -60.6259,25.03203 -70.8263,58.95439 -2.9574,9.8354 -3.3069,33.975 -0.6454,44.5871 9.5681,38.1508 48.5752,64.7632 86.3244,58.8945 20.0882,-3.123 43.0148,-17.8527 53.4176,-34.3194 l 3.7297,-5.9037 h 16.7333 c 18.2064,0 19.9334,0.6093 19.9334,7.0631 0,4.5495 -11.7772,25.0057 -20.285,35.2336 -24.405,29.3396 -63.7425,44.4254 -101.4605,38.9098 z M 144.59344,311.19438 V 159.86101 h 73.12039 73.12037 l 8.06008,4.02768 c 15.47287,7.73188 26.73255,22.00326 35.82296,45.4048 l 4.88191,12.56752 0.15074,22.66666 c 0.17215,25.88479 -2.08122,37.40163 -10.68186,54.59451 -12.1792,24.3464 -27.2889,35.887 -49.49591,37.8041 -9.23507,0.7973 -11.55343,1.4117 -11.20128,2.9688 0.24423,1.08 14.64423,24.0096 32,50.9547 17.35577,26.9451 34.72808,53.9457 38.60515,60.0012 l 7.04918,11.01 -24.97121,0.3637 c -18.85948,0.2747 -25.37353,-0.052 -26.615,-1.3333 -0.90409,-0.9334 -15.66767,-23.597 -32.80796,-50.3637 -43.00183,-67.1526 -39.95259,-62.9115 -46.6782,-64.9233 -3.13097,-0.9366 -9.44268,-1.712 -14.02601,-1.7231 l -8.33334,-0.02 v 59.3333 59.3333 h -24.00001 -24 z m 124.07324,-8.9132 c 17.56299,-8.69251 27.9632,-20.29537 32.65349,-36.42943 6.64216,-22.84822 -5.20964,-48.40132 -28.26782,-60.94686 -12.09746,-6.58202 -19.62135,-7.71055 -51.4057,-7.71055 h -29.0532 v 55.45272 55.45272 l 33.07323,-0.4527 33.07324,-0.4527 z m 180.07741,158.2794 c -24.73241,-5.6342 -39.21058,-13.2912 -56.63264,-29.9511 -50.86349,-48.6385 -50.7545,-131.6345 0.23686,-180.35131 46.19902,-44.1383 114.02282,-41.55904 158.49473,6.02734 19.71043,21.09082 32.41708,53.60337 32.41708,82.94577 0,7.5597 -0.36419,14.694 -0.80932,15.854 -0.72699,1.8945 -10.01173,2.1091 -91.2706,2.1091 -66.61611,0 -91.37059,0.4143 -93.91092,1.5717 -2.9394,1.3393 -3.33229,2.1775 -2.65624,5.6667 0.43636,2.2522 3.19913,9.0643 6.13949,15.138 9.18703,18.977 23.91138,32.1162 44.85219,40.0236 12.46416,4.7066 32.80997,4.9285 45.82249,0.4997 16.37071,-5.5717 30.97127,-16.2377 40.01672,-29.2331 l 3.9443,-5.6666 h 19.8941 c 18.3731,0 19.83083,0.1784 19.06662,2.3333 -0.45512,1.2833 -1.55571,3.2333 -2.44575,4.3333 -0.89004,1.1 -1.97936,3.5269 -2.42071,5.393 -1.3284,5.6168 -11.3311,19.9651 -20.72124,29.7235 -21.76482,22.6183 -46.32125,33.7919 -76.83446,34.9611 -9.92244,0.3802 -17.42135,-0.065 -23.1827,-1.378 z m 94.51603,-143.2118 c 0,-1.3818 -2.50076,-7.5318 -5.55724,-13.6667 -9.71439,-19.49855 -25.90111,-33.24494 -47.77609,-40.57335 -11.03743,-3.6977 -31.32467,-3.46575 -42.83376,0.48972 -23.27755,8.00005 -42.02255,26.10817 -50.30508,48.59593 l -2.82374,7.6666 h 74.64796 c 72.22988,0 74.64795,-0.081 74.64795,-2.5122 z m 673.48398,143.2118 c -24.7324,-5.6342 -39.2106,-13.2912 -56.6327,-29.9511 -50.8635,-48.6385 -50.7545,-131.6345 0.2369,-180.35131 46.199,-44.1383 114.0228,-41.55904 158.4947,6.02734 19.7104,21.09082 32.4171,53.60337 32.4171,82.94577 0,7.5597 -0.3642,14.694 -0.8093,15.854 -0.727,1.8945 -10.0118,2.1091 -91.2706,2.1091 -66.6161,0 -91.3706,0.4143 -93.9109,1.5717 -2.9394,1.3393 -3.3323,2.1775 -2.6563,5.6667 0.4364,2.2522 3.1992,9.0643 6.1395,15.138 9.187,18.977 23.9114,32.1162 44.8522,40.0236 12.4642,4.7066 32.81,4.9285 45.8225,0.4997 16.3707,-5.5717 30.9713,-16.2377 40.0167,-29.2331 l 3.9443,-5.6666 h 19.8941 c 18.3731,0 19.8308,0.1784 19.0666,2.3333 -0.4551,1.2833 -1.5557,3.2333 -2.4457,4.3333 -0.8901,1.1 -1.9794,3.5269 -2.4207,5.393 -1.3284,5.6168 -11.3311,19.9651 -20.7213,29.7235 -21.7648,22.6183 -46.3212,33.7919 -76.8344,34.9611 -9.9225,0.3802 -17.4214,-0.065 -23.1827,-1.378 z m 94.516,-143.2118 c 0,-1.3818 -2.5008,-7.5318 -5.5572,-13.6667 -9.7144,-19.49855 -25.9011,-33.24494 -47.7761,-40.57335 -11.0375,-3.6977 -31.3247,-3.46575 -42.8338,0.48972 -23.2775,8.00005 -42.0225,26.10817 -50.3051,48.59593 l -2.8237,7.6666 h 74.648 c 72.2298,0 74.6479,-0.081 74.6479,-2.5122 z m 245.0325,70.8456 -0.3658,-74.3334 -5.7734,-8.9796 c -15.6961,-24.41328 -42.0958,-38.42365 -68.8933,-36.56185 -22.5964,1.56992 -43.2524,12.539 -53.3564,28.33416 l -4.622,7.22529 -0.3441,76.991 -0.3442,76.991 h -18.6666 -18.6667 v -112 -111.99997 l 19,-0.36995 19,-0.36993 v 7.32874 7.32874 l 11.6667,-5.94412 c 16.8718,-8.59615 29.4721,-11.60558 49,-11.703 40.5561,-0.20232 76.8869,17.83606 96.7336,48.02881 12.3578,18.7998 11.933,15.05165 11.933,105.29288 v 79.0745 h -17.9674 -17.9676 z m 403.1182,72.3662 c -24.7324,-5.6342 -39.2107,-13.2912 -56.6327,-29.9511 -50.8635,-48.6385 -50.7545,-131.6345 0.2368,-180.35131 46.1991,-44.1383 114.0229,-41.55904 158.4948,6.02734 19.7104,21.09082 32.4171,53.60337 32.4171,82.94577 0,7.5597 -0.3642,14.694 -0.8094,15.854 -0.7269,1.8945 -10.0117,2.1091 -91.2705,2.1091 -66.6161,0 -91.3707,0.4143 -93.9109,1.5717 -2.9395,1.3393 -3.3323,2.1775 -2.6563,5.6667 0.4364,2.2522 3.1991,9.0643 6.1395,15.138 9.187,18.977 23.9113,32.1162 44.8521,40.0236 12.4643,4.7066 32.81,4.9285 45.8225,0.4997 16.3708,-5.5717 30.9714,-16.2377 40.0168,-29.2331 l 3.9443,-5.6666 h 19.8941 c 18.3731,0 19.8308,0.1784 19.0666,2.3333 -0.4551,1.2833 -1.5558,3.2333 -2.4458,4.3333 -0.89,1.1 -1.9793,3.5269 -2.4206,5.393 -1.3284,5.6168 -11.3311,19.9651 -20.7214,29.7235 -21.7648,22.6183 -46.3212,33.7919 -76.8344,34.9611 -9.9224,0.3802 -17.4213,-0.065 -23.1826,-1.378 z m 94.516,-143.2118 c 0,-1.3818 -2.5008,-7.5318 -5.5572,-13.6667 -9.7144,-19.49855 -25.9012,-33.24494 -47.7762,-40.57335 -11.0374,-3.6977 -31.3246,-3.46575 -42.8337,0.48972 -23.2776,8.00005 -42.0225,26.10817 -50.3051,48.59593 l -2.8237,7.6666 h 74.6479 c 72.2298,0 74.648,-0.081 74.648,-2.5122 z M 666.59345,459.73098 c -11.9315,-2.3997 -28.07861,-11.23 -37.1217,-20.3005 -14.1833,-14.2263 -23.33662,-36.5841 -22.34082,-54.5695 0.11467,-2.071 1.75683,-2.3333 14.60932,-2.3333 h 14.48012 l 0.73931,7.1632 c 1.39112,13.4785 10.51575,26.1269 23.41972,32.4637 6.45576,3.1703 9.1866,3.7064 18.88072,3.7064 9.69412,0 12.42496,-0.5361 18.88072,-3.7064 8.34805,-4.0995 15.44921,-11.1749 19.97277,-19.9002 4.07832,-7.8665 4.2109,-21.9424 0.28736,-30.5126 -6.57529,-14.3623 -19.63432,-22.1524 -40.07088,-23.9033 -10.81621,-0.9268 -14.35277,-1.8681 -22.92934,-6.1033 -32.70304,-16.1493 -45.33774,-53.9242 -28.43008,-84.99973 14.01673,-25.76216 45.55981,-40.45475 72.28945,-33.67202 13.69136,3.47423 22.51273,8.45264 32.37615,18.27178 9.81468,9.77062 16.69033,22.33713 19.47352,35.59142 2.7769,13.2244 4.2209,12.26771 -18.51634,12.26771 h -20 v -5.18265 c 0,-12.20172 -15.28856,-25.48402 -29.33333,-25.48402 -8.71245,0 -19.54325,5.73638 -24.59697,13.02743 -8.14508,11.751 -5.47911,28.59728 5.98234,37.80228 5.03619,4.0447 10.73732,5.6322 27.80406,7.742 29.42041,3.637 53.4527,25.498 59.46777,54.095 2.47445,11.764 2.47528,18.8941 0.004,30.6666 -6.92876,33.0016 -34.81161,57.0823 -67.95805,58.6913 -5.88651,0.2858 -13.70275,-0.084 -17.36942,-0.8213 z m 118,-118.5366 V 221.19434 h 20 20 v 120.00004 120 h -20 -20 z m 0,-161.33337 v -20 h 20 20 v 20 20 h -20 -20 z"
       style="fill:#000000;stroke-width:1.33333" />
  </g>
</svg>
